<svg viewBox="0 0 376 114" fill="none" xmlns="http://www.w3.org/2000/svg">
<rect width="376" height="98" fill="#15324E"/>
<path d="M72.625 52.5L86.8281 21.75H102.203L79.7969 65.25V90H65.5V65.25L43.0938 21.75H58.5156L72.625 52.5ZM102.344 64.1719C102.344 59.1406 103.312 54.6562 105.25 50.7188C107.188 46.7812 109.969 43.7344 113.594 41.5781C117.25 39.4219 121.484 38.3438 126.297 38.3438C133.141 38.3438 138.719 40.4375 143.031 44.625C147.375 48.8125 149.797 54.5 150.297 61.6875L150.391 65.1562C150.391 72.9375 148.219 79.1875 143.875 83.9062C139.531 88.5938 133.703 90.9375 126.391 90.9375C119.078 90.9375 113.234 88.5938 108.859 83.9062C104.516 79.2188 102.344 72.8438 102.344 64.7812V64.1719ZM115.891 65.1562C115.891 69.9688 116.797 73.6562 118.609 76.2188C120.422 78.75 123.016 80.0156 126.391 80.0156C129.672 80.0156 132.234 78.7656 134.078 76.2656C135.922 73.7344 136.844 69.7031 136.844 64.1719C136.844 59.4531 135.922 55.7969 134.078 53.2031C132.234 50.6094 129.641 49.3125 126.297 49.3125C122.984 49.3125 120.422 50.6094 118.609 53.2031C116.797 55.7656 115.891 59.75 115.891 65.1562ZM211 33.1406H190.094V90H176.031V33.1406H155.406V21.75H211V33.1406ZM232.469 90H218.875V39.2812H232.469V90ZM218.078 26.1562C218.078 24.125 218.75 22.4531 220.094 21.1406C221.469 19.8281 223.328 19.1719 225.672 19.1719C227.984 19.1719 229.828 19.8281 231.203 21.1406C232.578 22.4531 233.266 24.125 233.266 26.1562C233.266 28.2188 232.562 29.9062 231.156 31.2188C229.781 32.5312 227.953 33.1875 225.672 33.1875C223.391 33.1875 221.547 32.5312 220.141 31.2188C218.766 29.9062 218.078 28.2188 218.078 26.1562ZM262.984 54.4219L271.516 39.2812H286L271.562 64.125L286.609 90H272.078L263.031 74.0625L254.031 90H239.453L254.5 64.125L240.109 39.2812H254.641L262.984 54.4219ZM311.828 54.4219L320.359 39.2812H334.844L320.406 64.125L335.453 90H320.922L311.875 74.0625L302.875 90H288.297L303.344 64.125L288.953 39.2812H303.484L311.828 54.4219Z" fill="#FFFCFC"/>
<mask id="mask0" mask-type="alpha" maskUnits="userSpaceOnUse" x="69" y="19" width="293" height="72">
<path d="M98.625 52.5L112.828 21.75H128.203L105.797 65.25V90H91.5V65.25L69.0938 21.75H84.5156L98.625 52.5ZM128.344 64.1719C128.344 59.1406 129.312 54.6562 131.25 50.7188C133.188 46.7812 135.969 43.7344 139.594 41.5781C143.25 39.4219 147.484 38.3438 152.297 38.3438C159.141 38.3438 164.719 40.4375 169.031 44.625C173.375 48.8125 175.797 54.5 176.297 61.6875L176.391 65.1562C176.391 72.9375 174.219 79.1875 169.875 83.9062C165.531 88.5938 159.703 90.9375 152.391 90.9375C145.078 90.9375 139.234 88.5938 134.859 83.9062C130.516 79.2188 128.344 72.8438 128.344 64.7812V64.1719ZM141.891 65.1562C141.891 69.9688 142.797 73.6562 144.609 76.2188C146.422 78.75 149.016 80.0156 152.391 80.0156C155.672 80.0156 158.234 78.7656 160.078 76.2656C161.922 73.7344 162.844 69.7031 162.844 64.1719C162.844 59.4531 161.922 55.7969 160.078 53.2031C158.234 50.6094 155.641 49.3125 152.297 49.3125C148.984 49.3125 146.422 50.6094 144.609 53.2031C142.797 55.7656 141.891 59.75 141.891 65.1562ZM237 33.1406H216.094V90H202.031V33.1406H181.406V21.75H237V33.1406ZM258.469 90H244.875V39.2812H258.469V90ZM244.078 26.1562C244.078 24.125 244.75 22.4531 246.094 21.1406C247.469 19.8281 249.328 19.1719 251.672 19.1719C253.984 19.1719 255.828 19.8281 257.203 21.1406C258.578 22.4531 259.266 24.125 259.266 26.1562C259.266 28.2188 258.562 29.9062 257.156 31.2188C255.781 32.5312 253.953 33.1875 251.672 33.1875C249.391 33.1875 247.547 32.5312 246.141 31.2188C244.766 29.9062 244.078 28.2188 244.078 26.1562ZM288.984 54.4219L297.516 39.2812H312L297.562 64.125L312.609 90H298.078L289.031 74.0625L280.031 90H265.453L280.5 64.125L266.109 39.2812H280.641L288.984 54.4219ZM337.828 54.4219L346.359 39.2812H360.844L346.406 64.125L361.453 90H346.922L337.875 74.0625L328.875 90H314.297L329.344 64.125L314.953 39.2812H329.484L337.828 54.4219Z" fill="#FFFCFC"/>
</mask>
<g mask="url(#mask0)">
<path d="M202.5 21.5C194.138 36.949 103.09 40.9896 83 51.5C62.9102 62.0104 34.5 34 34.5 34L0.5 3H375C381.892 17.6039 306.843 87.9207 295 62.5C283.157 37.0793 210.862 6.05099 202.5 21.5Z" fill="url(#paint0_angular)" stroke="black"/>
</g>
<defs>
<radialGradient id="paint0_angular" cx="0" cy="0" r="1" gradientUnits="userSpaceOnUse" gradientTransform="translate(187.973 35.4942) rotate(90) scale(32.4942 187.473)">
<stop offset="0.049926" stop-color="#12D5EF" stop-opacity="0"/>
<stop offset="0.998788" stop-color="#EEF210"/>
</radialGradient>
</defs>
</svg>
