<svg width="376" height="76" viewBox="0 0 376 76" fill="none" xmlns="http://www.w3.org/2000/svg">
<rect y="1" width="376" height="64.4737" fill="#527CA4"/>
<path d="M72.625 34.1579L86.8281 3.4079H102.203L79.7969 46.9079V71.6579H65.5V46.9079L43.0938 3.4079H58.5156L72.625 34.1579ZM102.344 45.8298C102.344 40.7985 103.312 36.3141 105.25 32.3766C107.188 28.4391 109.969 25.3923 113.594 23.236C117.25 21.0798 121.484 20.0016 126.297 20.0016C133.141 20.0016 138.719 22.0954 143.031 26.2829C147.375 30.4704 149.797 36.1579 150.297 43.3454L150.391 46.8141C150.391 54.5954 148.219 60.8454 143.875 65.5641C139.531 70.2516 133.703 72.5954 126.391 72.5954C119.078 72.5954 113.234 70.2516 108.859 65.5641C104.516 60.8766 102.344 54.5016 102.344 46.4391V45.8298ZM115.891 46.8141C115.891 51.6266 116.797 55.3141 118.609 57.8766C120.422 60.4079 123.016 61.6735 126.391 61.6735C129.672 61.6735 132.234 60.4235 134.078 57.9235C135.922 55.3923 136.844 51.361 136.844 45.8298C136.844 41.111 135.922 37.4548 134.078 34.861C132.234 32.2673 129.641 30.9704 126.297 30.9704C122.984 30.9704 120.422 32.2673 118.609 34.861C116.797 37.4235 115.891 41.4079 115.891 46.8141ZM211 14.7985H190.094V71.6579H176.031V14.7985H155.406V3.4079H211V14.7985ZM232.469 71.6579H218.875V20.9391H232.469V71.6579ZM218.078 7.81415C218.078 5.7829 218.75 4.11102 220.094 2.79852C221.469 1.48602 223.328 0.829773 225.672 0.829773C227.984 0.829773 229.828 1.48602 231.203 2.79852C232.578 4.11102 233.266 5.7829 233.266 7.81415C233.266 9.87665 232.562 11.5641 231.156 12.8766C229.781 14.1891 227.953 14.8454 225.672 14.8454C223.391 14.8454 221.547 14.1891 220.141 12.8766C218.766 11.5641 218.078 9.87665 218.078 7.81415ZM262.984 36.0798L271.516 20.9391H286L271.562 45.7829L286.609 71.6579H272.078L263.031 55.7204L254.031 71.6579H239.453L254.5 45.7829L240.109 20.9391H254.641L262.984 36.0798ZM311.828 36.0798L320.359 20.9391H334.844L320.406 45.7829L335.453 71.6579H320.922L311.875 55.7204L302.875 71.6579H288.297L303.344 45.7829L288.953 20.9391H303.484L311.828 36.0798Z" fill="#FFFCFC"/>
<mask id="mask0" mask-type="alpha" maskUnits="userSpaceOnUse" x="69" y="0" width="293" height="73">
<path d="M98.625 34.1579L112.828 3.4079H128.203L105.797 46.9079V71.6579H91.5V46.9079L69.0938 3.4079H84.5156L98.625 34.1579ZM128.344 45.8298C128.344 40.7985 129.312 36.3141 131.25 32.3766C133.188 28.4391 135.969 25.3923 139.594 23.236C143.25 21.0798 147.484 20.0016 152.297 20.0016C159.141 20.0016 164.719 22.0954 169.031 26.2829C173.375 30.4704 175.797 36.1579 176.297 43.3454L176.391 46.8141C176.391 54.5954 174.219 60.8454 169.875 65.5641C165.531 70.2516 159.703 72.5954 152.391 72.5954C145.078 72.5954 139.234 70.2516 134.859 65.5641C130.516 60.8766 128.344 54.5016 128.344 46.4391V45.8298ZM141.891 46.8141C141.891 51.6266 142.797 55.3141 144.609 57.8766C146.422 60.4079 149.016 61.6735 152.391 61.6735C155.672 61.6735 158.234 60.4235 160.078 57.9235C161.922 55.3923 162.844 51.361 162.844 45.8298C162.844 41.111 161.922 37.4548 160.078 34.861C158.234 32.2673 155.641 30.9704 152.297 30.9704C148.984 30.9704 146.422 32.2673 144.609 34.861C142.797 37.4235 141.891 41.4079 141.891 46.8141ZM237 14.7985H216.094V71.6579H202.031V14.7985H181.406V3.4079H237V14.7985ZM258.469 71.6579H244.875V20.9391H258.469V71.6579ZM244.078 7.81415C244.078 5.7829 244.75 4.11102 246.094 2.79852C247.469 1.48602 249.328 0.829773 251.672 0.829773C253.984 0.829773 255.828 1.48602 257.203 2.79852C258.578 4.11102 259.266 5.7829 259.266 7.81415C259.266 9.87665 258.562 11.5641 257.156 12.8766C255.781 14.1891 253.953 14.8454 251.672 14.8454C249.391 14.8454 247.547 14.1891 246.141 12.8766C244.766 11.5641 244.078 9.87665 244.078 7.81415ZM288.984 36.0798L297.516 20.9391H312L297.562 45.7829L312.609 71.6579H298.078L289.031 55.7204L280.031 71.6579H265.453L280.5 45.7829L266.109 20.9391H280.641L288.984 36.0798ZM337.828 36.0798L346.359 20.9391H360.844L346.406 45.7829L361.453 71.6579H346.922L337.875 55.7204L328.875 71.6579H314.297L329.344 45.7829L314.953 20.9391H329.484L337.828 36.0798Z" fill="#FFFCFC"/>
</mask>
<g mask="url(#mask0)">
<path d="M202.5 15.1448C194.138 25.3086 103.09 27.9669 83 34.8816C62.9102 41.7964 34.5 23.3685 34.5 23.3685L0.5 2.97375H375C381.892 12.5816 306.843 58.8427 295 42.1185C283.157 25.3943 210.862 4.98099 202.5 15.1448Z" fill="url(#paint0_angular)" stroke="black"/>
</g>
<defs>
<radialGradient id="paint0_angular" cx="0" cy="0" r="1" gradientUnits="userSpaceOnUse" gradientTransform="translate(187.973 24.3515) rotate(90) scale(21.3777 187.473)">
<stop offset="0.049926" stop-color="#12D5EF" stop-opacity="0"/>
<stop offset="0.998788" stop-color="#EEF210"/>
</radialGradient>
</defs>
</svg>
